<svg width="342" height="347" viewBox="0 0 342 347" fill="none" xmlns="http://www.w3.org/2000/svg">
<path d="M336 0H285V2H336V0Z" fill="#FF267E"/>
<path d="M1 164H0V345H1V164Z" fill="#FF267E"/>
<path d="M0.223999 346.136H4.22414V338.275L2.37375 336.886H0.223999V346.136Z" fill="#FF267E"/>
<path d="M341 338L342 338L342 0L341 5.9001e-08L341 338Z" fill="#FF267E"/>
<path d="M341.805 346.31L337.805 346.31L337.805 338.886L339.655 337.575L341.805 337.575L341.805 346.31Z" fill="#FF267E"/>
<path d="M341.805 0.1766L337.805 0.1766L337.805 7.59969L339.655 8.91156L341.805 8.91156L341.805 0.1766Z" fill="#FF267E"/>
<path d="M333 345H6.26172V346.323H333V345Z" fill="#FF267E"/>
</svg>
