<svg width="319" height="246" viewBox="0 0 319 246" fill="none" xmlns="http://www.w3.org/2000/svg">
<g clip-path="url(#clip0_2031_9944)">
<path d="M318.538 0H0.562988V244.435H318.538V0Z" stroke="#0303A2" stroke-width="0.6465" stroke-miterlimit="10"/>
<path d="M20.436 0V244.439" stroke="#0303A2" stroke-width="0.6465" stroke-miterlimit="10"/>
<path d="M40.3091 0V244.439" stroke="#0303A2" stroke-width="0.6465" stroke-miterlimit="10"/>
<path d="M60.1865 0V244.439" stroke="#0303A2" stroke-width="0.6465" stroke-miterlimit="10"/>
<path d="M80.0596 0V244.439" stroke="#0303A2" stroke-width="0.6465" stroke-miterlimit="10"/>
<path d="M99.9326 0V244.439" stroke="#0303A2" stroke-width="0.6465" stroke-miterlimit="10"/>
<path d="M119.806 0V244.439" stroke="#0303A2" stroke-width="0.6465" stroke-miterlimit="10"/>
<path d="M139.679 0V244.439" stroke="#0303A2" stroke-width="0.6465" stroke-miterlimit="10"/>
<path d="M159.552 0V244.439" stroke="#0303A2" stroke-width="0.6465" stroke-miterlimit="10"/>
<path d="M179.426 0V244.439" stroke="#0303A2" stroke-width="0.6465" stroke-miterlimit="10"/>
<path d="M199.298 0V244.439" stroke="#0303A2" stroke-width="0.6465" stroke-miterlimit="10"/>
<path d="M219.172 0V244.439" stroke="#0303A2" stroke-width="0.6465" stroke-miterlimit="10"/>
<path d="M239.045 0V244.439" stroke="#0303A2" stroke-width="0.6465" stroke-miterlimit="10"/>
<path d="M258.918 0V244.439" stroke="#0303A2" stroke-width="0.6465" stroke-miterlimit="10"/>
<path d="M278.792 0V244.439" stroke="#0303A2" stroke-width="0.6465" stroke-miterlimit="10"/>
<path d="M298.665 0V244.439" stroke="#0303A2" stroke-width="0.6465" stroke-miterlimit="10"/>
<path d="M318.538 225.635H0.562988" stroke="#0303A2" stroke-width="0.6465" stroke-miterlimit="10"/>
<path d="M318.538 206.831H0.562988" stroke="#0303A2" stroke-width="0.6465" stroke-miterlimit="10"/>
<path d="M318.538 188.031H0.562988" stroke="#0303A2" stroke-width="0.6465" stroke-miterlimit="10"/>
<path d="M318.538 169.227H0.562988" stroke="#0303A2" stroke-width="0.6465" stroke-miterlimit="10"/>
<path d="M318.538 150.423H0.562988" stroke="#0303A2" stroke-width="0.6465" stroke-miterlimit="10"/>
<path d="M318.538 131.619H0.562988" stroke="#0303A2" stroke-width="0.6465" stroke-miterlimit="10"/>
<path d="M318.538 112.82H0.562988" stroke="#0303A2" stroke-width="0.6465" stroke-miterlimit="10"/>
<path d="M318.538 94.0157H0.562988" stroke="#0303A2" stroke-width="0.6465" stroke-miterlimit="10"/>
<path d="M318.538 75.2117H0.562988" stroke="#0303A2" stroke-width="0.6465" stroke-miterlimit="10"/>
<path d="M318.538 56.4077H0.562988" stroke="#0303A2" stroke-width="0.6465" stroke-miterlimit="10"/>
<path d="M318.538 37.608H0.562988" stroke="#0303A2" stroke-width="0.6465" stroke-miterlimit="10"/>
<path d="M318.538 18.804H0.562988" stroke="#0303A2" stroke-width="0.6465" stroke-miterlimit="10"/>
</g>
<defs>
<clipPath id="clip0_2031_9944">
<rect width="319" height="246" fill="white"/>
</clipPath>
</defs>
</svg>
